<svg t="1681886910146" class="icon" viewBox="0 0 1024 1024" version="1.1" xmlns="http://www.w3.org/2000/svg" p-id="2105" width="200" height="200"><path d="M0 0h1024v1024H0z" fill="#FFFFFF" fill-opacity="0" p-id="2106"></path><path d="M906.112 263.552l-145.664-145.664a74.112 74.112 0 0 0-52.778667-21.888H469.333333A160.170667 160.170667 0 0 0 309.333333 256v10.666667H256A160.170667 160.170667 0 0 0 96 426.666667v341.333333A160.170667 160.170667 0 0 0 256 928h298.666667A160.170667 160.170667 0 0 0 714.666667 768v-10.666667H768A160.170667 160.170667 0 0 0 928 597.333333V316.330667a74.069333 74.069333 0 0 0-21.888-52.778667zM757.333333 205.226667l61.397334 61.397333h-16.085334a45.397333 45.397333 0 0 1-45.312-45.312V205.226667zM650.666667 768A96.085333 96.085333 0 0 1 554.666667 864H256A96.085333 96.085333 0 0 1 160 768v-341.333333A96.085333 96.085333 0 0 1 256 330.666667h53.333333V597.333333A160.170667 160.170667 0 0 0 469.333333 757.333333h181.333334V768zM768 693.333333h-298.666667A96.085333 96.085333 0 0 1 373.333333 597.333333V256A96.085333 96.085333 0 0 1 469.333333 160h224v61.354667a109.44 109.44 0 0 0 109.312 109.312h61.354667V597.333333A96.128 96.128 0 0 1 768 693.333333z" fill="#515151" p-id="2107"></path></svg>