<svg t="1682585288799" class="icon" viewBox="0 0 1024 1024" version="1.1" xmlns="http://www.w3.org/2000/svg" p-id="6138" width="200" height="200"><path d="M866.575086 434.735265c0-194.090487-180.02412-351.989703-401.315108-351.989702-221.263359 0-401.287479 157.899216-401.287479 351.989702 0 108.500133 57.523111 211.490785 154.545842 277.869589v75.30408c0 22.018479 12.637832 42.795689 31.818682 52.710502 8.990768 4.88731 19.114336 7.465019 29.237905 7.465019 12.141528 0 23.873734-3.490497 32.497135-9.479909l46.337351-30.357402c1.043772-0.651846 2.563382-1.61887 4.28049-3.039219l35.759435-23.536043c22.444175 3.356444 44.890396 5.053086 66.809615 5.053086 221.292012-0.001023 401.316132-157.898193 401.316132-351.989703zM465.266118 740.620931c-22.310122 0-45.252647-1.972934-68.195172-5.863545a23.418362 23.418362 0 0 0-16.71366 3.509941l-44.614104 29.38833a21.309328 21.309328 0 0 0-2.563382 1.969865c0.027629-0.033769 0.027629-0.056282 0.027629-0.056282-0.045025 0-0.343831 0.196475-1.045819 0.632403l-46.131666 30.255071c-1.542122 1.037632-7.906064 2.727111-13.885242-0.515746-4.257977-2.219551-7.245008-7.163143-7.245008-12.033058v-87.654362c0.004093-7.849782-4.0175-15.163351-10.666944-19.402909-90.090854-57.471946-143.879921-149.4815-143.879921-246.115374 0-168.661328 159.211095-305.885666 354.905102-305.885665 195.721637 0 354.932732 137.224338 354.932732 305.885665S660.981614 740.620931 465.266118 740.620931zM324.923766 388.3007c-22.011316 0-39.9642 17.775852-39.964201 39.561018 0 21.787212 17.952884 39.562041 39.964201 39.562041 22.005176 0 39.95806-17.775852 39.95806-39.562041 0-21.785166-17.952884-39.561018-39.95806-39.561018z m149.33926 0c-22.005176 0-39.9642 17.775852-39.964201 39.561018 0 21.787212 17.958 39.562041 39.964201 39.562041 22.007223 0 39.9642-17.775852 39.9642-39.562041 0-21.785166-17.955954-39.561018-39.9642-39.561018z m149.340283 0c-22.005176 0-39.962154 17.775852-39.962154 39.561018 0 21.787212 17.956977 39.562041 39.962154 39.562041 22.011316 0 39.9642-17.775852 39.9642-39.562041 0-21.785166-17.952884-39.561018-39.9642-39.561018z m329.451384 168.889525c-4.194532-17.090237-10.403954-34.232662-18.516726-50.948369-5.65786-11.6749-19.660782-16.533558-31.348985-10.870582-11.665691 5.66707-16.519232 19.742646-10.861372 31.419594 6.644327 13.729699 11.754718 27.714202 15.122419 41.524742 3.737114 15.490809 5.641487 31.847336 5.641487 48.631604 0 71.375607-38.892799 140.161227-104.040565 183.989431a23.52581 23.52581 0 0 0-10.381441 19.515472v59.953464c0 4.881171-2.432399 9.356089-6.580882 12.274558-7.263427 2.341325-12.005428 2.044566-16.384156-0.907673l-33.206286-21.859867a25.157983 25.157983 0 0 0-2.77009-2.182712l-28.876677-19.461237a23.484877 23.484877 0 0 0-16.84362-3.703345c-65.518203 10.595312-129.455397 0.410346-184.866405-29.403681a23.385617 23.385617 0 0 0-17.880229-1.820461 23.443945 23.443945 0 0 0-13.907755 11.405771c-6.137791 11.437493-1.852184 25.694195 9.559727 31.838125 61.965284 33.326013 132.731 45.642526 205.285456 35.781948l18.815531 12.69923c2.382257 2.269693 4.764514 3.731998 6.414084 4.626367l32.382524 21.298072c10.039657 6.712889 21.794375 10.263761 34.006512 10.263761 8.389064 0 17.024745-1.680269 26.421766-5.109367a23.215748 23.215748 0 0 0 3.485381-1.618871c19.660782-11.116175 31.872918-31.847336 31.872918-54.121641v-47.739281c71.889307-52.794413 114.426099-132.574435 114.426099-215.719087 0.002047-20.50194-2.335185-40.593534-6.968715-59.755965z" fill="#ffffff" p-id="6139"></path></svg>