<svg t="1682065915383" class="icon" viewBox="0 0 1024 1024" version="1.1" xmlns="http://www.w3.org/2000/svg" p-id="12432" width="200" height="200"><path d="M820.1 207.9c-15.2-9.5-34.1-9.4-49.2 0.3L203.3 573.9c-15.5 10-23.5 28.3-20.4 46.5 3.2 18.2 16.9 32.7 34.9 36.8L359.3 690c13.4 3.1 26.9-5.3 30-18.7 3.1-13.5-5.3-26.9-18.7-30l-132.1-30.6L719.3 301 456.7 645.8c-14.7 19.3-21 44.2-17.2 68.2l13.9 88c1.9 12.3 12.6 21.1 24.7 21.1 1.3 0 2.6-0.1 3.9-0.3 13.6-2.2 22.9-15 20.8-28.6l-13.9-88c-1.7-10.6 1.1-21.6 7.6-30.1l289.4-379.9-50.7 430L581.9 688c-13.4-3.3-27 4.8-30.3 18.2-3.3 13.4 4.8 27 18.2 30.3l158.1 39.4 0.4 0.1c3.4 0.8 6.9 1.2 10.4 1.2 9.4 0 18.6-2.9 26.4-8.3 10.7-7.5 17.7-19.2 19.2-32.2l57.1-484.4c2.1-17.9-6.1-34.9-21.3-44.4z" p-id="12433" fill="#ffffff"></path></svg>