<svg t="1682056412375" class="icon" viewBox="0 0 1024 1024" version="1.1" xmlns="http://www.w3.org/2000/svg" p-id="4437" width="200" height="200"><path d="M512 128a384 384 0 1 0 0 768 384 384 0 0 0 0-768zM42.666667 512C42.666667 252.8 252.8 42.666667 512 42.666667s469.333333 210.133333 469.333333 469.333333-210.133333 469.333333-469.333333 469.333333S42.666667 771.2 42.666667 512z" fill="#75C82B" p-id="4438"></path><path d="M512 682.666667c-98.645333 0-167.637333 32.426667-210.346667 61.994666a42.666667 42.666667 0 1 1-48.64-70.101333C307.712 636.586667 393.386667 597.333333 512 597.333333s204.288 39.296 258.986667 77.226667a42.666667 42.666667 0 1 1-48.64 70.101333C679.68 715.093333 610.688 682.666667 512 682.666667zM512 469.333333a85.333333 85.333333 0 1 1 0-170.666666 85.333333 85.333333 0 0 1 0 170.666666zM341.333333 384a170.666667 170.666667 0 1 0 341.333334 0 170.666667 170.666667 0 0 0-341.333334 0z" fill="#75C82B" p-id="4439"></path></svg>